<?xml version="1.0" encoding="utf-8"?>
<!-- Generator: Adobe Illustrator 22.1.0, SVG Export Plug-In . SVG Version: 6.00 Build 0)  -->
<svg version="1.1" id="Layer_1" xmlns="http://www.w3.org/2000/svg" xmlns:xlink="http://www.w3.org/1999/xlink" x="0px" y="0px"
	 viewBox="0 0 50 50" style="enable-background:new 0 0 50 50;" xml:space="preserve">
<style type="text/css">
	.st0{fill:#282928;stroke:#282928;stroke-width:0.5;stroke-miterlimit:10;}
</style>
<g>
	<g>
		<path class="st0" d="M48.5,41h-47c-0.5,0-0.8-0.3-0.8-0.8V9.6c0-0.5,0.3-0.8,0.8-0.8h47c0.5,0,0.8,0.3,0.8,0.8v30.6
			C49.2,40.6,48.9,41,48.5,41z M2.2,39.5h45.5V10.4H2.2V39.5z"/>
	</g>
	<g>
		<path class="st0" d="M48.5,41h-47c-0.3,0-0.6-0.2-0.7-0.5c-0.1-0.3,0-0.7,0.2-0.8L21,24.3c0.3-0.2,0.7-0.2,0.9,0l3.1,2.4l3.1-2.4
			c0.3-0.2,0.7-0.2,0.9,0l19.9,15.3c0.2,0.2,0.4,0.5,0.2,0.8C49.1,40.8,48.8,41,48.5,41z M3.7,39.5h42.5L28.5,25.9l-3.1,2.4
			c-0.3,0.2-0.7,0.2-0.9,0l-3.1-2.4L3.7,39.5z"/>
	</g>
	<g>
		<path class="st0" d="M25,28.4c-0.2,0-0.3-0.1-0.5-0.2L1,10.2C0.8,10,0.6,9.7,0.8,9.4c0.1-0.3,0.4-0.5,0.7-0.5h47
			c0.3,0,0.6,0.2,0.7,0.5c0.1,0.3,0,0.7-0.2,0.8l-23.5,18C25.3,28.3,25.1,28.4,25,28.4z M3.7,10.4L25,26.7l21.3-16.3L3.7,10.4z"/>
	</g>
</g>
</svg>
