<?xml version="1.0" encoding="utf-8"?>
<!-- Generator: Adobe Illustrator 22.1.0, SVG Export Plug-In . SVG Version: 6.00 Build 0)  -->
<svg version="1.1" id="Layer_1" xmlns="http://www.w3.org/2000/svg" xmlns:xlink="http://www.w3.org/1999/xlink" x="0px" y="0px"
	 viewBox="0 0 211 107" style="enable-background:new 0 0 211 107;" xml:space="preserve">
<style type="text/css">
	.st0{fill:#FFFFFF;stroke:#FFFFFF;stroke-miterlimit:10;}
	.st1{fill:#FFFFFF;}
	.st2{fill:#FFFFFF;stroke:#FFFFFF;stroke-width:0.5;stroke-miterlimit:10;}
</style>
<g>
	<g>
		<path class="st0" d="M129.2,92c4.6,0,8.5-3.3,9.3-7.7c0.9,4.4,4.7,7.7,9.4,7.7c5.3,0,9.5-4.3,9.5-9.5c0-5.3-4.3-9.5-9.5-9.5
			c-4.7,0-8.5,3.3-9.4,7.7c-0.9-4.4-4.7-7.7-9.3-7.7c-5.3,0-9.5,4.3-9.5,9.5C119.7,87.7,123.9,92,129.2,92z M143.3,82.4
			c0-2.5,2.1-4.6,4.6-4.6c2.5,0,4.6,2.1,4.6,4.6s-2.1,4.6-4.6,4.6C145.4,87,143.3,85,143.3,82.4z M124.6,82.4c0-2.5,2.1-4.6,4.6-4.6
			c2.5,0,4.6,2.1,4.6,4.6s-2.1,4.6-4.6,4.6C126.7,87,124.6,85,124.6,82.4z"/>
		<path class="st0" d="M64.3,76.3h51.7v5.1c0,1.8-1.5,3.3-3.3,3.3H67.5c-1.8,0-3.3-1.5-3.3-3.3V76.3z"/>
		<path class="st0" d="M45.1,77.9c2.5,0,4.6,2.1,4.6,4.6c0,2.5-2,4.6-4.6,4.6c-2.5,0-4.6-2-4.6-4.6C40.5,79.9,42.5,77.9,45.1,77.9
			 M45.1,72.9c-5.3,0-9.6,4.3-9.6,9.5c0,5.3,4.3,9.5,9.6,9.5c5.3,0,9.5-4.3,9.5-9.5C54.6,77.2,50.3,72.9,45.1,72.9L45.1,72.9z"/>
		<path class="st0" d="M23.9,77.5c0,2.7,2.6,5.8,5.8,5.8h1v0.1h1.5v-0.1h0.7h0.7v-0.8c0-7.5,4.7-12.8,11.4-12.8
			c6.7,0,11.4,5.3,11.4,12.8H57h0.6h0.2h1.3H60v-9.5h60.4c2.3-2.2,5.4-3.5,8.8-3.5h18.7c5.4,0,10,3.3,12,7.9h2.8V66.5h-13.8l-2-2.9
			c-0.5-0.8-1.4-1.2-2.3-1.2h-20c-0.9,0-1.8,0.5-2.3,1.2l-2,2.9H91.5V32.1c0-4.5-0.3-4.7-0.8-9.2l-0.4-3.6c-0.1-0.7-0.7-1.2-1.4-1.2
			h-2.2C85,18,68.5,20.2,60.1,25.8c-0.7,0.5-1.2,1.1-1.6,1.9c-0.9,2.1-1.7,4.2-1.7,4.2c0,0-0.5,0.1-1.1,0.3c-1.5,0.4-2.7,1.5-3.3,3
			l-0.4,1.1h3.1l-4.7,13.7c0,0-22.7,3.7-23.1,5.9c0,0-3.4,15-3.4,17.1S23.9,74.8,23.9,77.5z M76.3,45.8c0-0.3,0.3-0.6,0.6-0.6
			c0.3,0,0.6,0.3,0.6,0.6V61c0,0.3-0.3,0.6-0.6,0.6c-0.3,0-0.6-0.3-0.6-0.6V45.8z M54.2,49.5l4.5-13.2h14.4l-0.5,8.9
			c0,0.9-0.8,1.7-1.7,1.9L54.2,49.5z M27.4,71.5c0-1,0.8-1.8,1.9-1.8h6.8l-2.9,2.1c-1,0.7-2.3,1.1-3.5,1.1h-2.2
			C27.4,72.9,27.4,71.5,27.4,71.5z"/>
	</g>
	<path class="st1" d="M100.3,22.6H96v-2.5h11.6v2.5h-4.3v10.8h-3.1V22.6z"/>
	<path class="st1" d="M117.8,33.4l-2.6-3.7h-0.2h-2.7v3.7h-3.1V20.1h5.8c3.6,0,5.8,1.8,5.8,4.8c0,2-1,3.5-2.7,4.2l3,4.3H117.8z
		 M114.9,22.6h-2.5v4.7h2.5c1.9,0,2.8-0.9,2.8-2.3C117.7,23.4,116.8,22.6,114.9,22.6z"/>
	<path class="st1" d="M123.2,27.5v-7.5h3.1v7.4c0,2.5,1.1,3.6,3,3.6c1.9,0,3-1,3-3.6v-7.4h3v7.5c0,3.9-2.2,6.1-6,6.1
		C125.4,33.6,123.2,31.5,123.2,27.5z"/>
	<path class="st1" d="M137.5,26.7c0-4,3.1-6.9,7.2-6.9c2.3,0,4.2,0.8,5.5,2.4l-2,1.8c-0.9-1-2-1.6-3.4-1.6c-2.5,0-4.3,1.8-4.3,4.3
		s1.8,4.3,4.3,4.3c1.3,0,2.5-0.5,3.4-1.6l2,1.8c-1.3,1.5-3.2,2.4-5.5,2.4C140.6,33.6,137.5,30.8,137.5,26.7z"/>
	<path class="st1" d="M157.2,28.2l-1.8,1.9v3.4h-3.1V20.1h3.1v6.2l5.9-6.2h3.4l-5.5,5.9l5.9,7.4h-3.6L157.2,28.2z"/>
	<path class="st1" d="M176.7,30.9v2.5h-10.3V20.1h10.1v2.5h-7v2.9h6.2v2.4h-6.2v3.1H176.7z"/>
	<path class="st1" d="M187.7,33.4l-2.6-3.7H185h-2.7v3.7h-3.1V20.1h5.8c3.6,0,5.8,1.8,5.8,4.8c0,2-1,3.5-2.7,4.2l3,4.3H187.7z
		 M184.8,22.6h-2.5v4.7h2.5c1.9,0,2.8-0.9,2.8-2.3C187.6,23.4,186.7,22.6,184.8,22.6z"/>
	<path class="st1" d="M97.4,50.4v-7.5h3.1v7.4c0,2.5,1.1,3.6,3,3.6c1.9,0,3-1,3-3.6v-7.4h3v7.5c0,3.9-2.2,6.1-6,6.1
		C99.7,56.5,97.4,54.3,97.4,50.4z"/>
	<path class="st1" d="M124.8,42.9v13.3h-2.5l-6.7-8.1v8.1h-3V42.9h2.6l6.6,8.1v-8.1H124.8z"/>
	<path class="st1" d="M127.9,42.9h3.1v13.3h-3.1V42.9z"/>
	<path class="st1" d="M162.5,42.9v13.3H160l-6.7-8.1v8.1h-3V42.9h2.6l6.6,8.1v-8.1H162.5z"/>
	<path class="st2" d="M140.7,42.5c-4,0-7.3,3.3-7.3,7.3s3.3,7.3,7.3,7.3l0,0l0,0l0,0c4,0,7.3-3.3,7.3-7.3S144.7,42.5,140.7,42.5z
		 M147.1,52.3h-1.5c0.2-0.8,0.3-1.6,0.3-2.4h1.7C147.6,50.7,147.4,51.6,147.1,52.3z M133.7,49.9h1.7c0,0.9,0.1,1.7,0.3,2.4h-1.5
		C133.9,51.6,133.8,50.7,133.7,49.9z M134.2,47.1h1.5c-0.2,0.8-0.3,1.6-0.3,2.4h-1.7C133.8,48.7,133.9,47.9,134.2,47.1z M147.6,49.6
		H146c0-0.9-0.1-1.7-0.3-2.4h1.5C147.4,47.9,147.6,48.7,147.6,49.6z M145.6,49.6h-2.1c0-0.9-0.1-1.7-0.2-2.4h1.9
		C145.5,47.9,145.6,48.7,145.6,49.6z M139.1,55.2h1.4v1.4C140,56.6,139.5,56,139.1,55.2z M140.8,44.2v-1.4c0.5,0.1,1,0.6,1.4,1.4
		H140.8z M142.4,44.6c0.3,0.6,0.5,1.4,0.6,2.2h-2.1v-2.2H142.4z M140.5,44.6v2.2h-2.1c0.1-0.8,0.4-1.6,0.6-2.2H140.5z M139.1,44.2
		c0.4-0.8,0.9-1.4,1.4-1.4v1.4H139.1z M140.5,47.1v2.4h-2.4c0-0.9,0.1-1.7,0.2-2.4H140.5z M140.5,49.9v2.4h-2.2
		c-0.1-0.8-0.2-1.6-0.2-2.4H140.5z M140.5,52.6v2.2H139c-0.3-0.6-0.5-1.4-0.6-2.2H140.5z M140.8,54.9v-2.2h2.1
		c-0.1,0.8-0.4,1.6-0.6,2.2H140.8z M142.2,55.2c-0.4,0.8-0.9,1.4-1.4,1.5v-1.4L142.2,55.2z M140.8,52.3v-2.4h2.4
		c0,0.9-0.1,1.7-0.2,2.4H140.8z M140.8,49.6v-2.4h2.2c0.1,0.8,0.2,1.6,0.2,2.4H140.8z M143.3,46.8c-0.1-0.8-0.3-1.6-0.6-2.2h1.3
		c0.5,0.6,0.9,1.4,1.2,2.2H143.3z M142.6,44.2c-0.2-0.6-0.5-1-0.9-1.3c0.7,0.2,1.4,0.7,2,1.3H142.6z M138.8,44.2h-1.1
		c0.6-0.6,1.3-1.1,2-1.3C139.3,43.2,139,43.7,138.8,44.2z M138.7,44.6c-0.2,0.6-0.5,1.4-0.6,2.2h-1.9c0.3-0.9,0.7-1.6,1.2-2.2H138.7
		z M138,47.1c-0.1,0.8-0.2,1.6-0.2,2.4h-2.1c0-0.9,0.1-1.7,0.4-2.4H138z M135.7,49.9h2.1c0,0.9,0.1,1.7,0.2,2.4h-1.9
		C135.9,51.6,135.8,50.7,135.7,49.9z M138.1,52.6c0.1,0.8,0.3,1.6,0.6,2.2h-1.3c-0.5-0.6-0.9-1.4-1.2-2.2H138.1z M138.8,55.2
		c0.2,0.6,0.5,1,0.9,1.3c-0.7-0.2-1.4-0.7-2-1.3H138.8z M138.4,56.3c-0.7-0.2-1.4-0.6-2-1.1h0.8C137.6,55.6,138,56,138.4,56.3z
		 M142.6,55.2h1.1c-0.6,0.6-1.3,1.1-2,1.3C142.1,56.2,142.3,55.8,142.6,55.2z M142.7,54.9c0.2-0.6,0.5-1.4,0.6-2.2h1.9
		c-0.3,0.9-0.7,1.6-1.2,2.2H142.7z M143.4,52.3c0.1-0.8,0.2-1.6,0.2-2.4h2.1c0,0.9-0.1,1.7-0.4,2.4H143.4z M145.5,46.8
		c-0.3-0.8-0.7-1.6-1.1-2.2h0.9c0.7,0.6,1.3,1.4,1.7,2.2H145.5z M144.2,44.2c-0.4-0.4-0.8-0.8-1.2-1.1c0.7,0.2,1.4,0.6,2,1.1H144.2z
		 M137.2,44.2h-0.8c0.6-0.5,1.3-0.8,2-1.1C138,43.4,137.6,43.8,137.2,44.2z M136,44.6h0.9c-0.5,0.6-0.8,1.4-1.1,2.2h-1.5
		C134.8,46,135.3,45.2,136,44.6z M135.9,52.6c0.3,0.8,0.7,1.6,1.1,2.2H136c-0.7-0.6-1.3-1.4-1.7-2.2H135.9z M144.2,55.2h0.8
		c-0.6,0.5-1.3,0.8-2,1.1C143.4,56,143.8,55.6,144.2,55.2z M145.3,54.9h-0.9c0.5-0.6,0.8-1.4,1.1-2.2h1.5
		C146.6,53.5,146,54.3,145.3,54.9z"/>
</g>
</svg>
