<?xml version="1.0" encoding="utf-8"?>
<!-- Generator: Adobe Illustrator 22.1.0, SVG Export Plug-In . SVG Version: 6.00 Build 0)  -->
<svg version="1.1" id="Layer_1" xmlns="http://www.w3.org/2000/svg" xmlns:xlink="http://www.w3.org/1999/xlink" x="0px" y="0px"
	 viewBox="0 0 50 50" style="enable-background:new 0 0 50 50;" xml:space="preserve">
<style type="text/css">
	.st0{fill:#272828;stroke:#272828;stroke-miterlimit:10;}
</style>
<g transform="translate(0,-952.36218)">
	<g>
		<path class="st0" d="M25,953.4c-8.8,0-16,7.2-16.2,16.2c0,0.3,0.2,0.6,0.5,0.6s0.6-0.2,0.6-0.5c0.1-8.4,6.8-15.1,15.1-15.1
			c8.3,0,15.1,6.8,15.1,15.3c0,4-2,8.1-4.8,11.4c0,0,0,0,0,0c-3,3.8-7.8,10.2-10.3,17.9c-2.5-7.8-7.3-14.2-10.3-17.9c0,0,0,0,0,0
			c-2.1-2.5-3.8-5.4-4.4-8.4c0-0.3-0.3-0.5-0.6-0.5c-0.3,0-0.5,0.3-0.5,0.6c0,0,0,0.1,0,0.1c0.7,3.2,2.5,6.3,4.7,8.9v0h0
			c3.2,4,8.3,10.8,10.6,19c0.1,0.3,0.4,0.5,0.7,0.4c0.2-0.1,0.4-0.2,0.4-0.4c2.3-8.2,7.4-15,10.6-19h0c0,0,0,0,0,0
			c2.9-3.5,5-7.7,5-12.1C41.2,960.7,33.9,953.4,25,953.4z M25,960.6c-5.2,0-9.5,4.3-9.5,9.5s4.3,9.5,9.5,9.5s9.5-4.3,9.5-9.5
			S30.2,960.6,25,960.6z M25,961.7c4.6,0,8.4,3.7,8.4,8.4s-3.7,8.4-8.4,8.4s-8.4-3.7-8.4-8.4S20.4,961.7,25,961.7z"/>
	</g>
</g>
</svg>
