<?xml version="1.0" encoding="utf-8"?>
<!-- Generator: Adobe Illustrator 22.1.0, SVG Export Plug-In . SVG Version: 6.00 Build 0)  -->
<svg version="1.1" id="Layer_1" xmlns="http://www.w3.org/2000/svg" xmlns:xlink="http://www.w3.org/1999/xlink" x="0px" y="0px"
	 viewBox="0 0 50 50" style="enable-background:new 0 0 50 50;" xml:space="preserve">
<style type="text/css">
	.st0{fill:#282928;stroke:#282928;stroke-width:2;stroke-miterlimit:10;}
</style>
<path class="st0" d="M25,3.6c3.4,0,6.1,2.7,6.1,6.1s-2.7,6.1-6.1,6.1s-6.1-2.7-6.1-6.1S21.6,3.6,25,3.6 M25,2
	c-4.2,0-7.6,3.4-7.6,7.6s3.4,7.6,7.6,7.6s7.6-3.4,7.6-7.6S29.2,2,25,2L25,2z"/>
<path class="st0" d="M25,21.2c5.4,0,9.9,4.5,9.9,9.9v15.4H15.1V31.1C15.1,25.7,19.6,21.2,25,21.2 M25,19.6
	c-6.3,0-11.5,5.1-11.5,11.5V48h22.8V31.1C36.5,24.7,31.3,19.6,25,19.6L25,19.6z"/>
</svg>
