<?xml version="1.0" encoding="utf-8"?>
<!-- Generator: Adobe Illustrator 22.1.0, SVG Export Plug-In . SVG Version: 6.00 Build 0)  -->
<svg version="1.1" id="Layer_1" xmlns="http://www.w3.org/2000/svg" xmlns:xlink="http://www.w3.org/1999/xlink" x="0px" y="0px"
	 viewBox="0 0 50 50" style="enable-background:new 0 0 50 50;" xml:space="preserve">
<style type="text/css">
	.st0{fill:#282928;}
</style>
<path class="st0" d="M43.4,20.4h-3.1v-4.6c0-8.4-6.9-15.3-15.3-15.3S9.7,7.4,9.7,15.8v4.6H6.6c-0.8,0-1.5,0.7-1.5,1.5v26
	c0,0.8,0.7,1.5,1.5,1.5h36.7c0.8,0,1.5-0.7,1.5-1.5v-26C44.9,21.1,44.2,20.4,43.4,20.4z M12.8,15.8c0-6.7,5.5-12.2,12.2-12.2
	s12.2,5.5,12.2,12.2v4.6H12.8V15.8z M41.8,46.4H8.2V23.5h33.6V46.4z M28.1,34.2c0,1.1-0.6,2.1-1.5,2.6v2c0,0.8-0.7,1.5-1.5,1.5
	s-1.5-0.7-1.5-1.5v-2c-0.9-0.5-1.5-1.5-1.5-2.6c0-1.7,1.4-3.1,3.1-3.1S28.1,32.5,28.1,34.2z"/>
</svg>
